<svg width="153" height="68" viewBox="0 0 153 68" fill="none" xmlns="http://www.w3.org/2000/svg">
<path d="M46.028 15.508L44.334 12.252H44.268V24H41.892V8.644H44.664L49.68 17.136L51.374 20.392H51.44V8.644H53.816V24H51.044L46.028 15.508ZM63.5371 24.264C62.5397 24.264 61.6304 24.0953 60.8091 23.758C60.0024 23.406 59.3057 22.9 58.7191 22.24C58.1471 21.5653 57.6997 20.7367 57.3771 19.754C57.0691 18.7567 56.9151 17.6127 56.9151 16.322C56.9151 15.0313 57.0691 13.8947 57.3771 12.912C57.6997 11.9147 58.1471 11.086 58.7191 10.426C59.3057 9.75133 60.0024 9.24533 60.8091 8.908C61.6304 8.556 62.5397 8.38 63.5371 8.38C64.5344 8.38 65.4364 8.556 66.2431 8.908C67.0644 9.24533 67.7611 9.75133 68.3331 10.426C68.9197 11.086 69.3671 11.9147 69.6751 12.912C69.9977 13.8947 70.1591 15.0313 70.1591 16.322C70.1591 17.6127 69.9977 18.7567 69.6751 19.754C69.3671 20.7367 68.9197 21.5653 68.3331 22.24C67.7611 22.9 67.0644 23.406 66.2431 23.758C65.4364 24.0953 64.5344 24.264 63.5371 24.264ZM63.5371 22.042C64.1237 22.042 64.6591 21.9393 65.1431 21.734C65.6417 21.5287 66.0597 21.2353 66.3971 20.854C66.7491 20.458 67.0204 19.9813 67.2111 19.424C67.4017 18.8667 67.4971 18.236 67.4971 17.532V15.112C67.4971 14.408 67.4017 13.7773 67.2111 13.22C67.0204 12.6627 66.7491 12.1933 66.3971 11.812C66.0597 11.416 65.6417 11.1153 65.1431 10.91C64.6591 10.7047 64.1237 10.602 63.5371 10.602C62.9357 10.602 62.3931 10.7047 61.9091 10.91C61.4251 11.1153 61.0071 11.416 60.6551 11.812C60.3177 12.1933 60.0537 12.6627 59.8631 13.22C59.6724 13.7773 59.5771 14.408 59.5771 15.112V17.532C59.5771 18.236 59.6724 18.8667 59.8631 19.424C60.0537 19.9813 60.3177 20.458 60.6551 20.854C61.0071 21.2353 61.4251 21.5287 61.9091 21.734C62.3931 21.9393 62.9357 22.042 63.5371 22.042ZM77.8142 24.264C76.5236 24.264 75.4236 24.0293 74.5142 23.56C73.6196 23.0907 72.8496 22.46 72.2042 21.668L73.9202 20.062C74.4629 20.722 75.0569 21.2207 75.7022 21.558C76.3622 21.8953 77.1102 22.064 77.9462 22.064C78.9289 22.064 79.6696 21.844 80.1682 21.404C80.6669 20.964 80.9162 20.37 80.9162 19.622C80.9162 19.0207 80.7402 18.544 80.3882 18.192C80.0362 17.84 79.4129 17.576 78.5182 17.4L77.1542 17.158C75.6582 16.8793 74.5362 16.388 73.7882 15.684C73.0402 14.98 72.6662 14.012 72.6662 12.78C72.6662 12.1053 72.7909 11.4967 73.0402 10.954C73.3042 10.3967 73.6636 9.93467 74.1182 9.568C74.5876 9.18667 75.1522 8.89333 75.8122 8.688C76.4722 8.48267 77.2129 8.38 78.0342 8.38C79.1929 8.38 80.1976 8.58533 81.0482 8.996C81.8989 9.392 82.6249 9.97133 83.2262 10.734L81.4882 12.274C81.0922 11.7607 80.6082 11.35 80.0362 11.042C79.4642 10.734 78.7529 10.58 77.9022 10.58C77.0222 10.58 76.3402 10.756 75.8562 11.108C75.3722 11.46 75.1302 11.9733 75.1302 12.648C75.1302 13.2933 75.3282 13.7773 75.7242 14.1C76.1202 14.408 76.7362 14.6427 77.5722 14.804L78.9362 15.09C80.4762 15.3833 81.5982 15.882 82.3022 16.586C83.0209 17.29 83.3802 18.258 83.3802 19.49C83.3802 20.2087 83.2556 20.8613 83.0062 21.448C82.7569 22.0347 82.3902 22.5407 81.9062 22.966C81.4369 23.3767 80.8576 23.6993 80.1682 23.934C79.4789 24.154 78.6942 24.264 77.8142 24.264ZM95.9787 27.806H93.8007C92.9353 27.806 92.2973 27.586 91.8867 27.146C91.4907 26.706 91.2927 26.112 91.2927 25.364V24.198C90.4273 24.0953 89.65 23.846 88.9607 23.45C88.2713 23.054 87.6847 22.526 87.2007 21.866C86.7167 21.206 86.3427 20.414 86.0787 19.49C85.8147 18.5513 85.6827 17.4953 85.6827 16.322C85.6827 15.0313 85.8367 13.8947 86.1447 12.912C86.4673 11.9147 86.9147 11.086 87.4867 10.426C88.0733 9.75133 88.77 9.24533 89.5767 8.908C90.398 8.556 91.3073 8.38 92.3047 8.38C93.302 8.38 94.204 8.556 95.0107 8.908C95.832 9.24533 96.5287 9.75133 97.1007 10.426C97.6873 11.086 98.1347 11.9147 98.4427 12.912C98.7653 13.8947 98.9267 15.0313 98.9267 16.322C98.9267 18.61 98.45 20.4213 97.4967 21.756C96.5433 23.076 95.2527 23.8753 93.6247 24.154V25.738H95.9787V27.806ZM92.3047 22.042C92.8913 22.042 93.4267 21.9393 93.9107 21.734C94.4093 21.5287 94.8273 21.2353 95.1647 20.854C95.5167 20.458 95.788 19.9813 95.9787 19.424C96.1693 18.8667 96.2647 18.236 96.2647 17.532V15.112C96.2647 14.408 96.1693 13.7773 95.9787 13.22C95.788 12.6627 95.5167 12.1933 95.1647 11.812C94.8273 11.416 94.4093 11.1153 93.9107 10.91C93.4267 10.7047 92.8913 10.602 92.3047 10.602C91.7033 10.602 91.1607 10.7047 90.6767 10.91C90.1927 11.1153 89.7747 11.416 89.4227 11.812C89.0853 12.1933 88.8213 12.6627 88.6307 13.22C88.44 13.7773 88.3447 14.408 88.3447 15.112V17.532C88.3447 18.236 88.44 18.8667 88.6307 19.424C88.8213 19.9813 89.0853 20.458 89.4227 20.854C89.7747 21.2353 90.1927 21.5287 90.6767 21.734C91.1607 21.9393 91.7033 22.042 92.3047 22.042ZM102.027 24V8.644H104.513V21.8H110.761V24H102.027Z" fill="#00A5B9"/>
<path d="M13.84 58.36C11.44 58.36 9.29333 57.8933 7.4 56.96C5.50667 56.0267 4.02667 54.7333 2.96 53.08C1.92 51.4 1.4 49.4933 1.4 47.36V40.56C1.4 38.4267 1.90667 36.5333 2.92 34.88C3.96 33.2267 5.4 31.9467 7.24 31.04C9.10667 30.1067 11.2267 29.64 13.6 29.64C15.9733 29.64 18.0933 30 19.96 30.72C21.8267 31.4133 23.2667 32.4 24.28 33.68C25.32 34.96 25.84 36.4133 25.84 38.04C25.84 39.1067 25.4933 39.9467 24.8 40.56C24.1067 41.1467 23.16 41.44 21.96 41.44C21.2667 41.44 20.5867 41.3467 19.92 41.16C20 40.6 20.04 39.92 20.04 39.12C20.04 37.84 19.44 36.8 18.24 36C17.04 35.1733 15.4933 34.76 13.6 34.76C11.7333 34.76 10.2133 35.3067 9.04 36.4C7.86667 37.4667 7.28 38.8533 7.28 40.56V47.36C7.28 49.0933 7.88 50.5067 9.08 51.6C10.3067 52.6933 11.8933 53.24 13.84 53.24C15.7333 53.24 17.2667 52.84 18.44 52.04C19.64 51.24 20.24 50.2 20.24 48.92C20.24 48.04 20.2 47.4 20.12 47C20.84 46.84 21.4933 46.76 22.08 46.76C23.28 46.76 24.24 47.0667 24.96 47.68C25.68 48.2933 26.04 49.1333 26.04 50.2C26.04 51.7733 25.52 53.1867 24.48 54.44C23.4667 55.6667 22.0267 56.6267 20.16 57.32C18.32 58.0133 16.2133 58.36 13.84 58.36ZM40.8619 58.36C38.6752 58.36 36.6619 57.9333 34.8219 57.08C32.9819 56.2 31.5152 55.0267 30.4219 53.56C29.3552 52.0667 28.8219 50.4667 28.8219 48.76V39.24C28.8219 37.5333 29.3552 35.9467 30.4219 34.48C31.5152 32.9867 32.9819 31.8133 34.8219 30.96C36.6619 30.08 38.6752 29.64 40.8619 29.64C43.0485 29.64 45.0619 30.08 46.9019 30.96C48.7419 31.8133 50.1952 32.9867 51.2619 34.48C52.3552 35.9467 52.9019 37.5333 52.9019 39.24V48.76C52.9019 50.4667 52.3552 52.0667 51.2619 53.56C50.1952 55.0267 48.7419 56.2 46.9019 57.08C45.0619 57.9333 43.0485 58.36 40.8619 58.36ZM40.8619 53.24C42.6752 53.24 44.1552 52.8133 45.3019 51.96C46.4485 51.1067 47.0219 50 47.0219 48.64V39.36C47.0219 38 46.4485 36.8933 45.3019 36.04C44.1552 35.1867 42.6752 34.76 40.8619 34.76C39.0485 34.76 37.5685 35.1867 36.4219 36.04C35.2752 36.8933 34.7019 38 34.7019 39.36V48.64C34.7019 50 35.2752 51.1067 36.4219 51.96C37.5685 52.8133 39.0485 53.24 40.8619 53.24ZM56.4969 32.68C56.4969 31.9333 56.7769 31.3067 57.3369 30.8C57.9235 30.2667 58.6302 30 59.4569 30H77.6569C77.6569 31.76 77.3635 33.04 76.7769 33.84C76.1902 34.64 75.2435 35.04 73.9369 35.04H62.3769V41.16H72.8569C72.8569 42.92 72.5635 44.2 71.9769 45C71.3902 45.8 70.4435 46.2 69.1369 46.2H62.3769V54.32C62.3769 55.7333 61.9102 56.76 60.9769 57.4C60.0702 58.04 58.5769 58.36 56.4969 58.36V32.68ZM81.2625 32.68C81.2625 31.9333 81.5425 31.3067 82.1025 30.8C82.6892 30.2667 83.3958 30 84.2225 30H102.423C102.423 31.76 102.129 33.04 101.543 33.84C100.956 34.64 100.009 35.04 98.7025 35.04H87.1425V41.16H97.6225C97.6225 42.92 97.3292 44.2 96.7425 45C96.1558 45.8 95.2092 46.2 93.9025 46.2H87.1425V54.32C87.1425 55.7333 86.6758 56.76 85.7425 57.4C84.8358 58.04 83.3425 58.36 81.2625 58.36V32.68ZM104.231 32.68C104.231 31.9333 104.511 31.3067 105.071 30.8C105.658 30.2667 106.365 30 107.191 30H125.071C125.071 31.76 124.778 33.04 124.191 33.84C123.605 34.64 122.658 35.04 121.351 35.04H110.111V41.36H120.591C120.591 43.12 120.298 44.4 119.711 45.2C119.125 46 118.178 46.4 116.871 46.4H110.111V52.96H122.191C123.471 52.96 124.405 53.36 124.991 54.16C125.578 54.96 125.871 56.24 125.871 58H107.191C106.365 58 105.658 57.7467 105.071 57.24C104.511 56.7333 104.231 56.0933 104.231 55.32V32.68ZM129.466 32.68C129.466 31.9333 129.746 31.3067 130.306 30.8C130.892 30.2667 131.599 30 132.426 30H150.306C150.306 31.76 150.012 33.04 149.426 33.84C148.839 34.64 147.892 35.04 146.586 35.04H135.346V41.36H145.826C145.826 43.12 145.532 44.4 144.946 45.2C144.359 46 143.412 46.4 142.106 46.4H135.346V52.96H147.426C148.706 52.96 149.639 53.36 150.226 54.16C150.812 54.96 151.106 56.24 151.106 58H132.426C131.599 58 130.892 57.7467 130.306 57.24C129.746 56.7333 129.466 56.0933 129.466 55.32V32.68Z" fill="#00A5B9"/>
<rect x="68" y="30" width="26" height="5" fill="#00A5B9"/>
<rect x="36" y="39" width="2" height="5" rx="1" fill="#00A5B9"/>
<rect x="41" y="39" width="2" height="5" rx="1" fill="#00A5B9"/>
<rect x="39" y="47" width="5" height="3" rx="1" fill="#00A5B9"/>
</svg>
